<svg height="512" viewBox="0 0 512 512" width="512" xmlns="http://www.w3.org/2000/svg"><g><path d="m476 8h-440a28.032 28.032 0 0 0 -28 28v440a28.032 28.032 0 0 0 28 28h440a28.032 28.032 0 0 0 28-28v-440a28.032 28.032 0 0 0 -28-28zm12 468a12.013 12.013 0 0 1 -12 12h-440a12.013 12.013 0 0 1 -12-12v-440a12.013 12.013 0 0 1 12-12h440a12.013 12.013 0 0 1 12 12z"/><path d="m312 192h-112a8 8 0 0 0 -8 8v112a8 8 0 0 0 8 8h112a8 8 0 0 0 8-8v-112a8 8 0 0 0 -8-8zm-8 112h-96v-96h96z"/><path d="m176 192h-112a8 8 0 0 0 -8 8v112a8 8 0 0 0 8 8h112a8 8 0 0 0 8-8v-112a8 8 0 0 0 -8-8zm-8 112h-96v-96h96z"/><path d="m448 192h-112a8 8 0 0 0 -8 8v112a8 8 0 0 0 8 8h112a8 8 0 0 0 8-8v-112a8 8 0 0 0 -8-8zm-8 112h-96v-96h96z"/><path d="m312 56h-112a8 8 0 0 0 -8 8v112a8 8 0 0 0 8 8h112a8 8 0 0 0 8-8v-112a8 8 0 0 0 -8-8zm-8 112h-96v-96h96z"/><path d="m176 56h-112a8 8 0 0 0 -8 8v112a8 8 0 0 0 8 8h112a8 8 0 0 0 8-8v-112a8 8 0 0 0 -8-8zm-8 112h-96v-96h96z"/><path d="m448 56h-112a8 8 0 0 0 -8 8v112a8 8 0 0 0 8 8h112a8 8 0 0 0 8-8v-112a8 8 0 0 0 -8-8zm-8 112h-96v-96h96z"/><path d="m312 328h-112a8 8 0 0 0 -8 8v112a8 8 0 0 0 8 8h112a8 8 0 0 0 8-8v-112a8 8 0 0 0 -8-8zm-8 112h-96v-96h96z"/><path d="m176 328h-112a8 8 0 0 0 -8 8v112a8 8 0 0 0 8 8h112a8 8 0 0 0 8-8v-112a8 8 0 0 0 -8-8zm-8 112h-96v-96h96z"/><path d="m448 328h-112a8 8 0 0 0 -8 8v112a8 8 0 0 0 8 8h112a8 8 0 0 0 8-8v-112a8 8 0 0 0 -8-8zm-8 112h-96v-96h96z"/></g></svg>